<svg width="54" height="14" viewBox="0 0 54 14" fill="none" xmlns="http://www.w3.org/2000/svg">
<path d="M10.6779 7.18221V9.50096C10.6779 11.8197 8.90475 13.5312 5.80172 13.5312C2.64328 13.5312 0.870117 11.8197 0.870117 9.05929V5.30513C0.870117 2.54471 2.64328 0.833252 5.80172 0.833252C8.35064 0.833252 9.84674 1.827 10.4563 3.70408C10.6225 4.09054 10.5117 4.31138 10.0684 4.477L9.12639 4.80825C8.73852 4.97387 8.51687 4.86346 8.40605 4.42179C8.01817 3.37283 7.187 2.82075 5.80172 2.82075C4.02856 2.82075 3.03116 3.70408 3.03116 5.24992V9.05929C3.03116 10.6603 4.02856 11.4885 5.80172 11.4885C7.57488 11.4885 8.57228 10.6051 8.57228 9.44575V8.61762H5.96795C5.52466 8.61762 5.35843 8.452 5.35843 8.01033V7.18221C5.35843 6.74054 5.52466 6.57492 5.96795 6.57492H10.0684C10.5671 6.63013 10.6779 6.74054 10.6779 7.18221ZM20.5965 1.71658V2.54471C20.5965 2.98638 20.4303 3.152 19.987 3.152H14.7229V6.13325H19.1558C19.5991 6.13325 19.7654 6.29887 19.7654 6.74054V7.51346C19.7654 7.95512 19.5991 8.12075 19.1558 8.12075H14.7229V11.2676H20.1532C20.5965 11.2676 20.7628 11.4333 20.7628 11.8749V12.703C20.7628 13.1447 20.6519 13.3103 20.1532 13.3103H13.1714C12.7281 13.3103 12.5619 13.1447 12.5619 12.703V1.71658C12.5619 1.27492 12.7281 1.10929 13.1714 1.10929H19.987C20.4303 1.10929 20.5965 1.27492 20.5965 1.71658ZM27.0242 0.888459C29.5731 0.888459 31.0692 1.88221 31.6788 3.75929C31.845 4.14575 31.7342 4.36658 31.2909 4.53221L30.3489 4.86346C29.961 4.97388 29.7394 4.91867 29.6286 4.477C29.2407 3.42804 28.4095 2.87596 27.0242 2.87596C25.2511 2.87596 24.2537 3.75929 24.2537 5.30513V9.1145C24.2537 10.7155 25.2511 11.5437 27.0242 11.5437C28.4649 11.5437 29.2961 10.9916 29.6286 9.94263C29.7948 9.50096 29.961 9.44575 30.4043 9.55616L31.3463 9.88742C31.7342 10.053 31.845 10.2187 31.7342 10.6603C31.0692 12.4822 29.5731 13.5312 27.0242 13.5312C23.8658 13.5312 22.0926 11.8197 22.0926 9.05929V5.30513C22.0926 2.59992 23.8658 0.888459 27.0242 0.888459ZM42.4286 13.2551H41.4311C40.7108 13.2551 40.4892 13.1447 40.2675 12.7582L38.5498 9.28012C38.1065 8.34158 37.6632 8.06554 36.4996 8.06554H35.613V12.6478C35.613 13.0895 35.4467 13.2551 35.0034 13.2551H34.006C33.5628 13.2551 33.3965 13.0895 33.3965 12.6478V1.71658C33.3965 1.27492 33.5628 1.10929 34.006 1.10929H35.0034C35.4467 1.10929 35.613 1.27492 35.613 1.71658V6.13325H36.4996L39.935 1.60617C40.2675 1.21971 40.4338 1.10929 41.0987 1.10929H42.2069C42.5948 1.10929 42.7056 1.38534 42.484 1.66138L38.6606 6.51971C39.4918 6.90617 39.9905 7.51346 40.4892 8.452L42.6502 12.6478C42.8718 13.0343 42.8164 13.2551 42.4286 13.2551ZM48.413 0.888459C51.5714 0.888459 53.2892 2.59992 53.2892 5.36033V9.1145C53.2892 11.8749 51.516 13.5864 48.413 13.5864C45.2545 13.5864 43.4814 11.8749 43.4814 9.1145V5.30513C43.4814 2.59992 45.2545 0.888459 48.413 0.888459ZM48.413 2.87596C46.6398 2.87596 45.6424 3.75929 45.6424 5.30513V9.05929C45.6424 10.6603 46.6398 11.4885 48.413 11.4885C50.1861 11.4885 51.1835 10.6051 51.1835 9.05929V5.30513C51.1835 3.70408 50.1861 2.87596 48.413 2.87596Z" fill="white"/>
</svg>
