<svg width="41" height="26" viewBox="0 0 41 26" fill="none" xmlns="http://www.w3.org/2000/svg">
<path d="M24.4361 18.2337C24.4361 19.4483 23.4387 20.3868 22.275 20.3868H22.0534C21.4993 20.3316 18.5625 20.0555 17.8975 20.718C17.1772 21.4358 17.5097 22.043 17.5651 22.0983C17.7313 22.4295 17.8421 22.7608 17.8421 23.1472C17.8421 24.3618 16.8447 25.3003 15.6811 25.3003C15.4594 25.3003 15.2378 25.2451 15.0716 25.1899C15.0716 25.1899 13.7417 24.9139 12.578 24.9139C11.4144 24.9691 10.3062 25.4108 10.3062 25.4108C10.0291 25.5212 9.75208 25.5764 9.47502 25.5764C8.4222 25.5764 7.53562 24.8035 7.31398 23.7545V23.5337C7.25857 23.2576 7.09234 22.7608 6.48281 22.4847C5.65164 22.1535 4.43259 22.8712 3.87848 23.2024C3.76766 23.2576 3.71225 23.3128 3.60143 23.368C3.26896 23.5337 2.93649 23.6441 2.54861 23.6441C1.32956 23.6441 0.387573 22.6503 0.387573 21.491C0.387573 20.2764 1.38498 19.3378 2.54861 19.3378C2.65943 19.3378 2.77026 19.3378 2.88108 19.393H2.9919C3.71225 19.5035 7.20316 20.1108 7.81268 18.6753C8.42221 17.2951 5.04212 15.6389 4.15554 15.2524C4.10013 15.2524 4.04472 15.1972 3.9893 15.1972H3.93389C3.26896 14.8108 2.77026 14.093 2.77026 13.2649C2.77026 12.0503 3.76766 11.1118 4.9313 11.1118C5.9287 11.1118 6.75987 11.7743 7.03692 12.6576C7.4248 13.4858 8.58844 15.8045 9.69666 15.3628C10.8603 14.866 9.08714 11.3878 8.58844 10.4493C8.53303 10.3941 8.53303 10.3389 8.47762 10.2285C8.36679 9.95242 8.31138 9.67638 8.31138 9.34513C8.31138 8.13055 9.25337 7.19201 10.4724 7.19201C11.6915 7.19201 12.6335 8.13055 12.6335 9.34513V9.45555C12.6335 9.56597 12.6335 9.73159 12.578 9.84201C12.4118 11.1118 12.0793 14.7003 13.243 15.2524C14.5729 15.8597 15.7919 12.3816 16.0135 11.6639V11.5535C16.346 10.7253 17.1218 10.118 18.0638 10.118C19.2828 10.118 20.2248 11.1118 20.2248 12.2712C20.2248 12.9337 19.9477 13.541 19.449 13.9274H19.3936C19.2828 13.9826 19.2274 14.093 19.1166 14.1483C18.2854 14.7555 16.069 16.4118 16.5677 17.2951C17.1218 18.2337 20.114 16.8535 21.1114 16.4118C21.2222 16.3566 21.2776 16.3014 21.3884 16.2462C21.6101 16.1358 21.8871 16.0805 22.1642 16.0805C23.4941 16.0805 24.4361 17.0743 24.4361 18.2337ZM38.5659 16.4118C38.3443 16.191 38.1226 16.0805 37.901 15.9701C37.7902 15.9149 37.6794 15.9149 37.5685 15.8597C36.5157 15.5285 33.4681 14.3139 33.7451 13.3201C34.0222 12.3264 36.7374 12.7128 37.7902 12.8785C37.901 12.9337 38.0118 12.9337 38.1226 12.9337H38.1781C38.7876 12.9889 39.3971 12.768 39.8958 12.3264C40.727 11.4983 40.727 10.118 39.8958 9.28992C39.2309 8.62742 38.2335 8.4618 37.4577 8.84826H37.4023C37.4023 8.84826 37.3469 8.84826 37.3469 8.90347C36.6819 9.23472 33.3019 10.8358 32.8032 9.51076C32.3599 8.24096 35.1858 5.97742 36.1832 5.20451C36.2941 5.1493 36.4049 5.03888 36.5157 4.98367H36.5711L36.6265 4.92847C37.4577 4.10034 37.4577 2.72013 36.6265 1.89201C35.7954 1.06388 34.4101 1.06388 33.5789 1.89201C33.3573 2.11284 33.191 2.38888 33.0802 2.66492C33.0802 2.72013 33.0248 2.83055 33.0248 2.88576C32.6923 3.87951 31.4733 7.57847 30.3097 7.1368C29.2014 6.69513 30.0326 4.21076 30.3651 3.38263C30.8084 2.55451 30.6975 1.50555 29.9772 0.787842C29.146 -0.0402832 27.7607 -0.0402832 26.9296 0.787842C26.32 1.39513 26.1538 2.22326 26.3755 2.94097V2.99617C26.3755 3.05138 26.4309 3.10659 26.4309 3.1618C26.7633 4.10034 27.9824 7.57847 26.5971 8.13055C25.1564 8.68263 23.1062 5.86701 22.7183 5.25972C22.7183 5.20451 22.6629 5.20451 22.6629 5.1493C22.6075 5.03888 22.5521 4.98367 22.4413 4.87326C21.6101 4.04513 20.2248 4.04513 19.3936 4.87326C18.5625 5.70138 18.5625 7.08159 19.3936 7.90972C19.6707 8.18576 20.0032 8.35138 20.3356 8.4618C20.4464 8.51701 20.5573 8.51701 20.6681 8.51701C21.2776 8.68263 22.6075 9.01388 22.8845 9.7868C23.1062 10.3941 22.8845 10.891 22.7183 11.1118L22.5521 11.2774C21.9426 12.1055 21.998 13.3201 22.7737 14.0378C22.9954 14.2587 23.217 14.4243 23.4941 14.4795C23.4941 14.4795 24.6577 14.9764 25.4889 15.7493C26.32 16.5222 27.0404 17.6816 27.0404 17.6816C27.1512 17.8472 27.262 18.0128 27.4283 18.1785C28.2594 19.0066 29.6447 19.0066 30.4759 18.1785C30.7529 17.9024 30.9192 17.5712 31.03 17.2399C31.03 17.1847 31.2516 16.5222 32.249 16.5222C33.191 16.5222 35.075 18.841 35.4075 19.2274C35.4075 19.2274 35.4075 19.2826 35.4629 19.2826C35.5183 19.3378 35.5183 19.393 35.5737 19.393C36.4049 20.2212 37.7902 20.2212 38.6213 19.393C39.3971 18.6753 39.3971 17.2951 38.5659 16.4118Z" fill="#FFCE1F"/>
</svg>
