<svg width="84" height="14" viewBox="0 0 84 14" fill="none" xmlns="http://www.w3.org/2000/svg">
<path d="M9.52746 5.58117V8.67283C9.52746 11.4885 7.7543 13.1999 4.54044 13.1999H0.717063C0.273773 13.1999 0.107544 13.0343 0.107544 12.5926V1.66138C0.107544 1.21971 0.273773 1.05409 0.717063 1.05409H4.54044C7.7543 1.05409 9.52746 2.76554 9.52746 5.58117ZM4.59585 3.04159H2.26858V11.2124H4.59585C6.42442 11.2124 7.42183 10.3291 7.42183 8.72805V5.58117C7.36642 3.92492 6.36901 3.04159 4.59585 3.04159ZM20.5543 1.66138L16.343 8.452V12.6478C16.343 13.0895 16.1768 13.2551 15.7335 13.2551H14.7361C14.2928 13.2551 14.1266 13.0895 14.1266 12.6478V8.39679L9.91533 1.66138C9.7491 1.33013 9.80451 1.05409 10.2478 1.05409H11.4669C12.1318 1.05409 12.3534 1.05408 12.5751 1.55096L15.2348 6.18846L17.8946 1.55096C18.1716 1.05408 18.3378 1.05409 19.0582 1.05409H20.1664C20.6651 1.05409 20.7205 1.33013 20.5543 1.66138ZM31.5811 1.66138V12.6478C31.5811 13.0895 31.4703 13.2551 30.9716 13.2551H29.9742C29.6971 13.2551 29.5309 13.1999 29.4201 12.9791L25.2088 6.79575C24.3777 5.58117 23.879 4.03534 23.8236 3.92492H23.7127C23.7127 4.03534 24.1006 5.69159 24.1006 7.34784V12.703C24.1006 13.1447 23.9344 13.3103 23.4911 13.3103H22.6045C22.1612 13.3103 21.995 13.1447 21.995 12.703V1.66138C21.995 1.21971 22.1612 1.05409 22.6045 1.05409H23.6019C23.9344 1.05409 24.0452 1.1645 24.156 1.33013L28.3119 7.51346C29.1984 8.83846 29.6417 10.2739 29.7526 10.4395H29.8634C29.8634 10.2739 29.4755 8.72804 29.4755 6.96138V1.66138C29.4755 1.21971 29.6417 1.05409 30.085 1.05409H30.9716C31.4149 1.05409 31.5811 1.21971 31.5811 1.66138ZM43.4945 13.1999H42.608C41.8876 13.1999 41.666 13.0895 41.5552 12.703L40.7794 10.4947H36.014L35.1829 12.703C35.072 13.0895 34.8504 13.1999 34.13 13.1999H33.2989C32.8556 13.1999 32.7448 13.0343 32.911 12.6478L37.2331 1.49575C37.3993 1.10929 37.5655 0.998877 37.9534 0.998877H38.84C39.2279 0.998877 39.4495 1.10929 39.5604 1.44054L43.8824 12.5926C43.9933 13.0343 43.8824 13.1999 43.4945 13.1999ZM38.3967 3.04159H38.2859C38.2859 3.04159 38.2859 4.09054 37.898 5.1395L36.5681 8.78325H40.1145L38.7846 5.19471C38.4521 4.03534 38.4521 3.04159 38.3967 3.04159ZM56.7932 1.66138V12.6478C56.7932 13.0895 56.6824 13.2551 56.1837 13.2551H55.2971C54.8539 13.2551 54.6876 13.0895 54.6876 12.6478V7.40305C54.6876 6.4093 54.7984 5.30513 55.0755 3.98013H54.9647C54.5214 5.24992 54.1335 6.13325 53.5794 7.127L51.9171 10.1083C51.7508 10.4395 51.5846 10.4947 51.2521 10.4947H50.698C50.3101 10.4947 50.1993 10.4395 50.0331 10.1083L48.3153 7.127C47.7058 6.13325 47.4287 5.36034 46.9855 4.03534H46.8746C47.1517 5.36034 47.2625 6.35409 47.2625 7.45825V12.6478C47.2625 13.0895 47.1517 13.2551 46.653 13.2551H45.8218C45.3785 13.2551 45.2123 13.0895 45.2123 12.6478V1.66138C45.2123 1.21971 45.3785 1.05409 45.8218 1.05409H46.5976C47.0963 1.05409 47.2071 1.1645 47.4287 1.49575L50.9751 7.84471L54.5214 1.49575C54.743 1.10929 54.8539 1.05409 55.2971 1.05409H56.1283C56.627 1.05409 56.7932 1.21971 56.7932 1.66138ZM59.7855 1.05409H60.7829C61.2262 1.05409 61.3924 1.21971 61.3924 1.66138V12.6478C61.3924 13.0895 61.2262 13.2551 60.7829 13.2551H59.7855C59.3422 13.2551 59.1759 13.0895 59.1759 12.6478V1.66138C59.1759 1.21971 59.3422 1.05409 59.7855 1.05409ZM68.2634 0.833252C70.8123 0.833252 72.3084 1.827 72.9179 3.70409C73.0842 4.09054 72.9733 4.31138 72.53 4.477L71.5881 4.80825C71.2002 4.91867 70.9785 4.86346 70.8677 4.42179C70.4798 3.37284 69.6487 2.82075 68.2634 2.82075C66.4902 2.82075 65.4928 3.70409 65.4928 5.24992V9.0593C65.4928 10.6603 66.4902 11.4885 68.2634 11.4885C69.7041 11.4885 70.5352 10.9364 70.8677 9.88742C71.0339 9.44575 71.2002 9.39054 71.6435 9.50096L72.5854 9.83221C72.9733 9.99784 73.0842 10.1635 72.9733 10.6051C72.3084 12.427 70.8123 13.476 68.2634 13.476C65.1049 13.476 63.3318 11.7645 63.3318 9.00409V5.24992C63.3872 2.54471 65.1049 0.833252 68.2634 0.833252ZM78.9577 0.833252C81.3958 0.833252 82.6703 1.71659 83.5015 3.42804C83.6677 3.8145 83.6123 4.03534 83.169 4.20096L82.227 4.58742C81.8391 4.75304 81.6729 4.69784 81.5067 4.31138C81.0634 3.42804 80.343 2.87596 79.0132 2.87596C77.3508 2.87596 76.5197 3.37283 76.5197 4.477C76.5197 5.69159 77.9049 5.91242 79.5119 6.07804C81.5621 6.29888 83.8893 6.79575 83.8893 9.66659C83.8893 11.9301 82.1716 13.476 79.0132 13.476C76.3534 13.476 74.9681 12.4822 74.3032 10.6051C74.137 10.1635 74.2478 9.99784 74.6911 9.83221L75.6331 9.50096C76.021 9.39054 76.1872 9.44575 76.3534 9.88742C76.7967 10.8812 77.6833 11.4885 79.0132 11.4885C80.7863 11.4885 81.7283 10.9364 81.7283 9.72179C81.7283 8.56242 80.4538 8.28638 79.0132 8.12075C76.9075 7.89992 74.3586 7.56867 74.3586 4.58742C74.2478 2.37909 75.8547 0.833252 78.9577 0.833252Z" fill="#FFCE1F"/>
</svg>
